<svg width="64" height="66" viewBox="0 0 64 66" fill="none" xmlns="http://www.w3.org/2000/svg">
<g filter="url(#filter0_d_23_253)">
<rect x="32" width="45.2548" height="45.2548" rx="15" transform="rotate(45 32 0)" fill="#FFA300"/>
</g>
<path d="M32.1581 18C32.1581 18 31.8324 20.5152 28.8041 21.354C25.7757 22.1928 20.0443 21.354 20.0443 21.354L19.0723 22.2474L19.6271 22.8679L19.553 23.0628L16.0402 32.3667L16 32.4748V32.5911C16 33.8715 16.5592 34.9113 17.3785 35.5724C18.1976 36.2336 19.2461 36.5421 20.2878 36.5423C21.3296 36.5425 22.38 36.2336 23.1993 35.5724C24.0186 34.9114 24.5778 33.8721 24.5778 32.5911V32.4662L24.5312 32.3519L20.8088 23.2299C22.4313 23.0265 26.288 22.6513 28.6348 23.3337C30.1975 23.7884 31.0843 24.7123 31.5779 25.4999L29.1978 38.4204L30.6483 40.4741C29.4456 40.9992 28.4399 42.1572 28.1032 43.9531C24.3036 44.3729 21.6344 45.3584 21.6344 46.5068H42.7663C42.7663 45.3585 40.0972 44.3729 36.2977 43.9531C35.965 42.1508 34.9717 40.9642 33.778 40.4361L35.2009 38.4203L32.8039 25.3982C33.3091 24.6342 34.1853 23.7689 35.6815 23.3337C38.05 22.6448 41.9569 23.0343 43.5519 23.2364L40.1047 32.3667L40.0624 32.4747V32.591C40.0624 33.8715 40.6216 34.9113 41.4409 35.5724C42.26 36.2336 43.3105 36.542 44.3522 36.5422C45.394 36.5424 46.4444 36.2335 47.2637 35.5724C48.0829 34.9113 48.6421 33.8721 48.6421 32.591V32.4662L48.5955 32.3518L44.797 23.0458L44.7334 22.8913L45.3285 22.3195L44.2718 21.354C44.2718 21.354 38.5425 22.1928 35.5142 21.354C32.4858 20.5152 32.1581 18 32.1581 18ZM20.1691 25.0171L23.1654 32.3603H17.3954L20.1691 25.0171ZM44.2338 25.0171L47.2299 32.3603H41.4579L44.2337 25.0172L44.2338 25.0171Z" fill="white"/>
<defs>
<filter id="filter0_d_23_253" x="2.2132" y="6.2132" width="59.5736" height="59.5736" filterUnits="userSpaceOnUse" color-interpolation-filters="sRGB">
<feFlood flood-opacity="0" result="BackgroundImageFix"/>
<feColorMatrix in="SourceAlpha" type="matrix" values="0 0 0 0 0 0 0 0 0 0 0 0 0 0 0 0 0 0 127 0" result="hardAlpha"/>
<feOffset dy="4"/>
<feGaussianBlur stdDeviation="2"/>
<feComposite in2="hardAlpha" operator="out"/>
<feColorMatrix type="matrix" values="0 0 0 0 0 0 0 0 0 0 0 0 0 0 0 0 0 0 0.25 0"/>
<feBlend mode="normal" in2="BackgroundImageFix" result="effect1_dropShadow_23_253"/>
<feBlend mode="normal" in="SourceGraphic" in2="effect1_dropShadow_23_253" result="shape"/>
</filter>
</defs>
</svg>
