<svg width="64" height="66" viewBox="0 0 64 66" fill="none" xmlns="http://www.w3.org/2000/svg">
<g filter="url(#filter0_d_23_249)">
<rect x="32" width="45.2548" height="45.2548" rx="15" transform="rotate(45 32 0)" fill="#FFA300"/>
</g>
<path d="M30.0913 16C28.3995 16.1532 26.7477 16.554 25.2354 17.2155C26.2322 19.3359 26.1578 21.5326 24.7996 22.5488C23.4484 23.5595 21.294 23.0642 19.5385 21.5333C18.4849 22.7922 17.6359 24.2101 17.0173 25.7805C19.2113 26.5787 20.6903 28.2181 20.4506 29.8901C20.2108 31.5621 18.3301 32.7209 16 32.8733C16.1516 34.5427 16.5778 36.1595 17.2281 37.6543C18.3832 37.1248 19.5494 36.9366 20.5418 37.0759C21.387 37.1969 22.0935 37.5299 22.5624 38.1539C23.5882 39.5192 23.0555 41.6948 21.4741 43.4588C22.7398 44.517 24.212 45.3644 25.793 45.9848C26.5926 43.7955 28.235 42.3195 29.9112 42.5587C31.5872 42.798 32.7478 44.6747 32.9005 47C34.5923 46.8469 36.2441 46.4463 37.7564 45.7846C36.7339 43.6491 36.8316 41.4104 38.2002 40.3867C38.8254 39.9188 39.6638 39.8028 40.5086 39.9256C41.4886 40.0654 42.5314 40.589 43.4635 41.3999C44.5068 40.1479 45.3702 38.7134 45.9847 37.1548C43.7907 36.3566 42.3117 34.7179 42.5515 33.0451C42.7912 31.3724 44.6699 30.2123 47 30.06C46.8469 28.381 46.431 26.7812 45.7739 25.279C43.6589 26.2574 41.4508 26.1298 40.4376 24.7815C39.4197 23.4261 39.9673 21.2958 41.5199 19.5394C40.254 18.4811 38.78 17.6336 37.199 17.0133C36.3993 19.2026 34.7569 20.6802 33.0809 20.4413C31.4047 20.2023 30.2439 18.3253 30.0915 16H30.0913ZM31.4958 22.1564C36.6598 22.1564 40.859 26.347 40.859 31.5001C40.859 36.6533 36.6598 40.8438 31.4959 40.8438C26.332 40.8438 22.1327 36.6533 22.1327 31.5001C22.1327 26.347 26.332 22.1565 31.4959 22.1565L31.4958 22.1564ZM31.4958 23.3658C26.9869 23.3658 23.3446 27.0005 23.3446 31.5001C23.3446 35.9997 26.9869 39.6345 31.4959 39.6345C36.0048 39.6345 39.6473 35.9997 39.6473 31.5001C39.6473 27.0007 36.0048 23.3659 31.4959 23.3659L31.4958 23.3658ZM31.4979 24.3447C35.4601 24.3447 38.6723 27.5502 38.6723 31.5041C38.6723 35.458 35.4601 38.6635 31.4979 38.6635C27.5357 38.6635 24.3235 35.458 24.3235 31.504C24.3235 27.5501 27.5357 24.3446 31.4979 24.3446V24.3447Z" fill="white"/>
<defs>
<filter id="filter0_d_23_249" x="2.2132" y="6.2132" width="59.5736" height="59.5736" filterUnits="userSpaceOnUse" color-interpolation-filters="sRGB">
<feFlood flood-opacity="0" result="BackgroundImageFix"/>
<feColorMatrix in="SourceAlpha" type="matrix" values="0 0 0 0 0 0 0 0 0 0 0 0 0 0 0 0 0 0 127 0" result="hardAlpha"/>
<feOffset dy="4"/>
<feGaussianBlur stdDeviation="2"/>
<feComposite in2="hardAlpha" operator="out"/>
<feColorMatrix type="matrix" values="0 0 0 0 0 0 0 0 0 0 0 0 0 0 0 0 0 0 0.25 0"/>
<feBlend mode="normal" in2="BackgroundImageFix" result="effect1_dropShadow_23_249"/>
<feBlend mode="normal" in="SourceGraphic" in2="effect1_dropShadow_23_249" result="shape"/>
</filter>
</defs>
</svg>
