<svg width="84" height="86" viewBox="0 0 84 86" fill="none" xmlns="http://www.w3.org/2000/svg">
<g filter="url(#filter0_d_23_244)">
<rect x="42" width="59.397" height="59.397" rx="15" transform="rotate(45 42 0)" fill="#FFA300"/>
</g>
<path d="M42.205 19.4443C34.9283 19.4443 28.6899 25.5618 26.9168 33.9739C32.0809 33.2205 36.9234 31.8162 41.9847 29.56L42.3885 29.3825L42.7768 29.5845C47.6146 32.0969 52.3349 33.6003 57.5236 34.1269C55.795 25.6361 49.5256 19.4444 42.2049 19.4444L42.205 19.4443ZM42.3303 31.4014C36.7108 33.8629 31.2809 35.316 25.4425 36.0019C26.1006 39.217 26.1188 42.4558 25.3935 45.6862C34.1335 49.7584 48.068 49.9103 58.732 45.674C57.6785 42.4912 57.5841 39.247 58.6157 36.0415C52.8376 35.627 47.5913 34.078 42.3304 31.4013L42.3303 31.4014ZM41.0088 34.6437H42.8412V47.1483H41.0088V34.6436V34.6437ZM35.2553 35.739H37.0844V45.6894H35.2554V35.739L35.2553 35.739ZM46.5823 35.739H48.4114V45.6894H46.5821V35.739L46.5823 35.739ZM29.7738 37.198H31.6029V44.9582H29.7739V37.198H29.7738ZM52.0638 37.198H53.8928V44.9582H52.0636V37.198H52.0638ZM55.8565 48.6259C54.4566 49.045 53.0219 49.3965 51.5712 49.6873L49.6899 55.9577C52.246 54.2607 54.3885 51.7184 55.8565 48.6258V48.6259ZM28.691 48.9073C30.0565 51.6732 31.965 53.9825 34.2275 55.6152L32.4961 49.8494C31.1848 49.5939 29.9134 49.2791 28.691 48.9073ZM49.5554 50.0482C44.5017 50.8484 39.3026 50.8888 34.5088 50.189L36.5492 56.9918C38.3111 57.8258 40.2188 58.2826 42.2049 58.2826C44.0243 58.2826 45.7783 57.8989 47.4142 57.1938L49.5554 50.0482ZM30.4192 54.664C28.5168 56.7745 26.8547 59.0068 25.6627 61.7269C32.5373 60.8718 38.7539 63.1643 42.11 66.6945C45.9944 63.2092 52.2615 61.2439 58.8359 62.3632C57.3598 59.4882 55.5744 57.275 53.5563 55.1198C50.5036 58.2276 46.5547 60.1119 42.205 60.1119C37.6467 60.1119 33.5276 58.0425 30.4192 54.664Z" fill="white"/>
<defs>
<filter id="filter0_d_23_244" x="2.21321" y="6.2132" width="79.5736" height="79.5736" filterUnits="userSpaceOnUse" color-interpolation-filters="sRGB">
<feFlood flood-opacity="0" result="BackgroundImageFix"/>
<feColorMatrix in="SourceAlpha" type="matrix" values="0 0 0 0 0 0 0 0 0 0 0 0 0 0 0 0 0 0 127 0" result="hardAlpha"/>
<feOffset dy="4"/>
<feGaussianBlur stdDeviation="2"/>
<feComposite in2="hardAlpha" operator="out"/>
<feColorMatrix type="matrix" values="0 0 0 0 0 0 0 0 0 0 0 0 0 0 0 0 0 0 0.25 0"/>
<feBlend mode="normal" in2="BackgroundImageFix" result="effect1_dropShadow_23_244"/>
<feBlend mode="normal" in="SourceGraphic" in2="effect1_dropShadow_23_244" result="shape"/>
</filter>
</defs>
</svg>
