<svg width="64" height="66" viewBox="0 0 64 66" fill="none" xmlns="http://www.w3.org/2000/svg">
<g filter="url(#filter0_d_23_240)">
<rect x="32" width="45.2548" height="45.2548" rx="15" transform="rotate(45 32 0)" fill="#FFA300"/>
</g>
<path d="M32.2518 18.0002C29.5797 18.0002 27.1614 18.1673 25.3835 18.4433C24.4946 18.5813 23.769 18.7427 23.2229 18.9431C22.9498 19.0433 22.7209 19.1491 22.5216 19.3002C22.3319 19.4442 22.132 19.6729 22.1132 19.9887H22.0693C22.0693 20.5793 22.0905 21.1618 22.1316 21.7355H20.6136C20.6066 21.2696 20.6138 20.8026 20.6356 20.3366L19.0646 19.9686C18.564 26.2189 20.9985 32.3024 25.4789 36.6347L26.3961 34.9007C26.1502 34.697 25.9127 34.4869 25.6838 34.2708C26.0264 33.9127 26.4041 33.5818 26.8135 33.2839C27.6026 34.0557 28.4648 34.6647 29.3807 35.0801C30.6764 36.1198 29.8525 36.8009 28.0037 37.2042C31.4527 37.8253 30.2858 40.8526 27.1761 42.6131C27.0507 42.6289 26.9267 42.6438 26.8081 42.6607C26.1022 42.7614 25.5263 42.8781 25.0851 43.0269C24.8645 43.1013 24.6774 43.1793 24.5047 43.2997C24.3318 43.4201 24.1164 43.634 24.1164 43.968C24.1164 44.3021 24.3319 44.5141 24.5047 44.6346C24.6774 44.755 24.8644 44.833 25.0851 44.9074C25.5263 45.0563 26.1023 45.173 26.8081 45.2736C28.2199 45.475 30.1353 45.5977 32.2518 45.5977C34.3684 45.5977 36.2838 45.475 37.6955 45.2736C38.4015 45.173 38.9774 45.0563 39.4186 44.9074C39.6392 44.833 39.8262 44.755 39.999 44.6346C40.1717 44.5142 40.3872 44.3021 40.3872 43.9681C40.3872 43.634 40.1717 43.4201 39.999 43.2997C39.8262 43.1793 39.6392 43.1013 39.4185 43.0269C38.9773 42.8781 38.4014 42.7614 37.6954 42.6607C37.5775 42.6439 37.454 42.6288 37.3292 42.6131C34.2193 40.8526 33.0525 37.8254 36.5016 37.2042C34.6519 36.8007 33.8279 36.1189 35.1265 35.0784C36.0488 34.6594 36.9164 34.0439 37.71 33.2637C38.0995 33.5434 38.4624 33.8519 38.7922 34.1848C38.5517 34.4293 38.3037 34.6686 38.0469 34.9007L38.9954 36.6347C43.6313 32.4186 45.8037 26.1154 45.4425 19.9355L43.8404 20.4025C43.8668 20.8484 43.8779 21.2925 43.8734 21.7355H42.3737C42.4149 21.1617 42.436 20.5791 42.436 19.9886H42.3921C42.3731 19.6727 42.1716 19.444 41.9819 19.3001C41.7826 19.1489 41.5536 19.0433 41.2805 18.9431C40.7344 18.7426 40.0088 18.5811 39.1199 18.4431C37.342 18.1672 34.9238 18 32.2515 18L32.2518 18.0002ZM32.2518 19.0952C34.8781 19.0952 37.2573 19.2624 38.9517 19.5254C39.7989 19.657 40.4786 19.8144 40.9036 19.9704C40.9645 19.9928 41.0076 20.0143 41.0574 20.0363C41.0076 20.0583 40.9648 20.0798 40.9036 20.1022C40.4787 20.2582 39.7989 20.4175 38.9517 20.549C37.2573 20.8121 34.8781 20.9793 32.2518 20.9793C29.6257 20.9793 27.2465 20.812 25.552 20.5489C24.7047 20.4174 24.025 20.2581 23.6001 20.1022C23.5386 20.0796 23.4964 20.0583 23.4463 20.0362C23.4963 20.0142 23.5387 19.9929 23.6001 19.9703C24.025 19.8144 24.7048 19.6569 25.552 19.5254C27.2465 19.2623 29.6256 19.0952 32.2518 19.0952ZM20.6942 23.3065H22.2964C22.7685 26.6978 23.9505 29.6833 25.5887 31.8759C25.18 32.2122 24.8031 32.5771 24.4644 32.9709C22.1998 30.2488 21.0049 26.8392 20.6942 23.3065ZM42.2091 23.3065H43.7912C43.464 26.8007 42.1647 30.1124 39.9788 32.8464C39.6601 32.4916 39.3105 32.1591 38.9334 31.852C40.5629 29.6618 41.7384 26.6855 42.2091 23.3066V23.3065Z" fill="white"/>
<defs>
<filter id="filter0_d_23_240" x="2.2132" y="6.2132" width="59.5736" height="59.5736" filterUnits="userSpaceOnUse" color-interpolation-filters="sRGB">
<feFlood flood-opacity="0" result="BackgroundImageFix"/>
<feColorMatrix in="SourceAlpha" type="matrix" values="0 0 0 0 0 0 0 0 0 0 0 0 0 0 0 0 0 0 127 0" result="hardAlpha"/>
<feOffset dy="4"/>
<feGaussianBlur stdDeviation="2"/>
<feComposite in2="hardAlpha" operator="out"/>
<feColorMatrix type="matrix" values="0 0 0 0 0 0 0 0 0 0 0 0 0 0 0 0 0 0 0.25 0"/>
<feBlend mode="normal" in2="BackgroundImageFix" result="effect1_dropShadow_23_240"/>
<feBlend mode="normal" in="SourceGraphic" in2="effect1_dropShadow_23_240" result="shape"/>
</filter>
</defs>
</svg>
