<svg width="64" height="66" viewBox="0 0 64 66" fill="none" xmlns="http://www.w3.org/2000/svg">
<g filter="url(#filter0_d_23_236)">
<rect x="32" width="45.2548" height="45.2548" rx="15" transform="rotate(45 32 0)" fill="#FFA300"/>
</g>
<path d="M23.9262 18L19.0991 23.6833H21.9953V28.4195H25.857V23.6833H28.7533L23.9262 18ZM36.9593 18C34.5458 18 34.5458 18 34.5458 20.3648V29.8403C34.5458 32.2084 34.5458 32.2084 36.9593 32.2084H41.7864C44.2 32.2084 44.2 32.2084 44.2 29.8403V20.3681C44.2 18 44.2 18 41.7864 18H36.9593ZM26.8282 30.1306C26.5096 30.1377 26.212 30.2737 25.8061 30.6987L25.4101 31.1113L24.999 30.7135C24.5533 30.2825 24.2016 30.1635 23.8451 30.1789C23.4886 30.1943 23.0694 30.3781 22.6006 30.7504L22.2253 31.0482L21.869 30.73C21.332 30.2533 20.8743 30.1121 20.4359 30.1343C20.1169 30.1506 19.7858 30.2685 19.4554 30.4748L21.9274 34.8371C22.8599 35.3967 24.7654 35.6073 26.0757 34.9594L28.4648 30.6172C28.0116 30.4359 27.6044 30.2501 27.2523 30.1789C27.1249 30.153 27.0066 30.134 26.8921 30.1306C26.8707 30.13 26.8493 30.1301 26.8282 30.1306ZM37.4421 34.1028V38.8389H34.5458L39.3729 44.5223L44.2 38.8389H41.3037V34.1028H37.4421ZM21.3995 35.8252V35.8253C20.3113 36.5797 19.4375 37.8806 19.0991 39.7861C18.7711 41.633 19.2877 42.8802 20.2021 43.7303C21.1165 44.5805 22.4891 45.0172 23.8828 44.9995C25.2766 44.9817 26.6666 44.5075 27.6012 43.6416C28.5358 42.7757 29.0644 41.5444 28.7647 39.7824C28.4547 37.9616 27.6544 36.6952 26.6413 35.9288C24.9227 36.8201 22.774 36.6307 21.3995 35.8252Z" fill="white"/>
<defs>
<filter id="filter0_d_23_236" x="2.2132" y="6.2132" width="59.5736" height="59.5736" filterUnits="userSpaceOnUse" color-interpolation-filters="sRGB">
<feFlood flood-opacity="0" result="BackgroundImageFix"/>
<feColorMatrix in="SourceAlpha" type="matrix" values="0 0 0 0 0 0 0 0 0 0 0 0 0 0 0 0 0 0 127 0" result="hardAlpha"/>
<feOffset dy="4"/>
<feGaussianBlur stdDeviation="2"/>
<feComposite in2="hardAlpha" operator="out"/>
<feColorMatrix type="matrix" values="0 0 0 0 0 0 0 0 0 0 0 0 0 0 0 0 0 0 0.25 0"/>
<feBlend mode="normal" in2="BackgroundImageFix" result="effect1_dropShadow_23_236"/>
<feBlend mode="normal" in="SourceGraphic" in2="effect1_dropShadow_23_236" result="shape"/>
</filter>
</defs>
</svg>
