<svg width="64" height="64" viewBox="0 0 512 512" fill="none" xmlns="http://www.w3.org/2000/svg">
<g clip-path="url(#clip0_34_213)">
<path d="M437.02 437.02L256 512L74.98 437.02L0 256L74.98 74.98L256 0L437.02 74.98L512 256L437.02 437.02Z" fill="#FFA300"/>
<path d="M410.365 101.005C418.575 78.745 426.575 69.885 430.695 66.555C433.755 64.075 436.425 63.135 438.615 63.745C442.615 64.875 447.105 71.195 450.495 80.635C461.385 110.975 460.495 164.915 449.565 210.145L410.365 101.005ZM124.365 173.925C131.885 142.925 134.645 107.795 132.135 79.005L88.535 74.145L124.365 173.925ZM413.825 60.925L112.625 27.395C110.125 27.115 107.385 28.855 105.515 30.395C101.845 33.395 95.095 40.715 87.855 58.035L396.535 92.375C401.695 79.125 407.555 68.485 413.845 60.945L413.825 60.925ZM185.045 359.635V288.915L195.805 290.105L238.045 295.285V365.795L185.045 359.635ZM201.045 319.295C201.078 321.306 201.578 323.283 202.504 325.068C203.431 326.854 204.759 328.4 206.385 329.585L204.045 354.005L221.045 355.745L217.045 330.745C218.676 329.87 220.018 328.538 220.906 326.914C221.793 325.289 222.189 323.441 222.045 321.595C221.865 318.565 220.68 315.682 218.676 313.401C216.673 311.121 213.967 309.574 210.985 309.005C210.985 309.005 211.155 309.105 211.115 309.105C205.165 308.425 200.045 313.005 201.045 319.205V319.295ZM254.045 383.745L169.045 373.905V287.185L167.995 287.095C167.688 288.857 166.81 290.468 165.496 291.681C164.182 292.894 162.506 293.64 160.725 293.805C162.507 294.432 164.01 295.67 164.968 297.299C165.925 298.928 166.275 300.843 165.955 302.705C165.635 304.587 164.653 306.293 163.186 307.514C161.719 308.735 159.864 309.392 157.955 309.365C166.408 313.369 162.296 326.143 153.095 324.465C154.753 325.608 155.919 327.334 156.36 329.298C156.802 331.263 156.486 333.322 155.476 335.064C154.466 336.806 152.836 338.103 150.912 338.697C148.988 339.29 146.911 339.136 145.095 338.265C146.46 339.893 147.121 341.997 146.935 344.114C146.748 346.23 145.728 348.185 144.1 349.55C142.472 350.915 140.368 351.576 138.251 351.39C136.135 351.203 134.18 350.183 132.815 348.555V348.645C133.113 350.268 132.903 351.943 132.212 353.442C131.521 354.94 130.383 356.188 128.955 357.015L138.085 362.365V376.615L126.085 383.745L114.085 376.625V362.365L122.235 357.545C120.966 357.056 119.838 356.258 118.953 355.225C118.068 354.192 117.453 352.955 117.165 351.625C117.161 351.592 117.161 351.558 117.165 351.525C116.43 353.446 114.984 355.01 113.127 355.893C111.269 356.775 109.143 356.909 107.19 356.266C105.237 355.622 103.606 354.251 102.637 352.438C101.668 350.624 101.434 348.506 101.985 346.525C95.134 353.739 83.891 344.46 89.675 336.365C81.329 340.884 73.458 329.689 80.535 323.365C71.365 326.026 66.082 313.282 74.445 308.675C72.3895 309.045 70.2708 308.596 68.5416 307.425C66.8123 306.254 65.6097 304.453 65.1906 302.407C64.7714 300.361 65.169 298.232 66.2985 296.475C67.4279 294.719 69.1996 293.473 71.235 293.005C61.941 291.958 61.687 278.542 70.935 277.145C70.266 276.981 69.671 276.672 69.105 276.385L51.865 274.525L52.465 441.635L361.645 476.125L361.045 310.295L254.045 297.245V383.745ZM394.105 219.745L398.825 221.655L399.735 222.235L438.455 226.545L415.195 161.775L402.375 198.775C402.215 199.235 398.965 208.575 394.105 219.765V219.745ZM185.565 180.005L190.565 185.495L203.315 174.345L224.765 172.065L241.375 187.415L251.885 196.145L270.425 186.855L273.865 187.355C273.985 186.685 274.115 186.015 274.245 185.355C277.325 169.255 281.595 155.195 281.775 154.605L295.165 110.695L312.045 153.405L320.465 174.825L331.125 162.435L353.265 136.705L359.045 170.155L362.335 189.255L379.435 179.615L414.525 159.825L396.045 108.425L148.185 80.815C150.695 115.755 146.335 158.135 135.795 192.815H138.115L145.115 179.955H185.575L185.565 180.005ZM74.275 277.395C81.875 279.495 82.175 290.161 74.705 292.685C82.442 293.552 84.507 303.838 77.705 307.625C85.358 307.077 89.319 316.572 83.545 321.625C90.858 319.51 96.713 327.841 92.245 334.005C98.533 330.487 105.902 336.422 103.805 343.315C108.335 338.592 116.311 341.011 117.455 347.455C119.512 341.742 126.935 340.314 130.965 344.855C129.68 338.451 136.195 333.289 142.135 336.005C137.571 330.235 142.56 321.882 149.805 323.165C143.386 318.624 146.683 308.517 154.545 308.635C147.229 305.132 149.17 294.22 157.245 293.455C155.6 292.888 154.185 291.8 153.215 290.356C152.244 288.913 151.77 287.192 151.865 285.455L75.435 277.195C75.025 277.385 74.689 277.345 74.275 277.395ZM441.815 416.475L441.225 252.615L432.555 259.615L377.045 306.405L377.625 468.405L441.815 416.475ZM415.585 251.275L391.475 236.005L387.295 234.315C381.385 245.835 373.905 257.315 364.635 262.195C359.195 265.075 352.415 266.535 344.475 266.535C333.345 266.535 319.725 263.625 307.125 258.535C297.125 254.535 283.825 247.535 276.865 237.195C271.965 229.905 270.225 219.425 271.555 204.275L249.775 215.205L230.775 199.405L219.355 188.875L210.195 189.875L189.745 207.705L178.745 196.005H154.535L136.925 228.005L131.225 220.805L126.805 225.655L116.045 242.005L103.755 246.915L97.611 256H85.411L82.635 262.005L159.535 270.215C159.982 269.114 160.665 268.124 161.535 267.315C162.923 266.034 164.719 265.284 166.606 265.2C168.493 265.116 170.349 265.702 171.845 266.855C171.792 266.779 171.745 266.699 171.705 266.615C166.75 258.247 178.164 249.995 184.575 257.24C190.987 264.485 181.408 274.811 173.705 268.875C174.263 269.756 174.644 270.738 174.825 271.765L197.445 274.205L365.985 294.775L417.475 251.395L415.585 251.275ZM387.245 193.545L350.365 214.335L343.225 172.865L315.225 205.375L297.095 159.265C297.095 159.265 280.445 213.845 290.095 228.265C297.785 239.715 325.515 250.515 344.425 250.515C349.425 250.515 353.855 249.755 357.095 248.035C370.895 240.725 387.245 193.545 387.245 193.545ZM70.165 464.345V464.145C70.165 460.375 61.955 457.315 51.835 457.315C41.715 457.315 33.505 460.375 33.505 464.145C33.505 467.355 39.505 470.045 47.505 470.775V470.975C47.505 474.745 55.715 477.805 65.835 477.805C75.955 477.805 84.165 474.745 84.165 470.975C84.155 467.765 78.185 465.075 70.165 464.345ZM420.165 470.975C410.035 470.975 401.835 474.035 401.835 477.805C401.835 481.575 410.045 484.635 420.165 484.635C430.285 484.635 438.495 481.575 438.495 477.805C438.495 474.035 430.245 471.005 420.115 471.005L420.165 470.975ZM460.165 454.695C450.035 454.695 441.835 457.755 441.835 461.525C441.835 465.295 450.045 468.355 460.165 468.355C470.285 468.355 478.495 465.295 478.495 461.525C478.495 457.755 470.275 454.695 460.155 454.695H460.165Z" fill="white"/>
</g>
<defs>
<clipPath id="clip0_34_213">
<rect width="512" height="512" fill="white"/>
</clipPath>
</defs>
</svg>
