<svg width="64" height="64" viewBox="0 0 512 512" fill="none" xmlns="http://www.w3.org/2000/svg">
<g clip-path="url(#clip0_34_217)">
<path d="M437.02 437.02L256 512L74.98 437.02L0 256L74.98 74.98L256 0L437.02 74.98L512 256L437.02 437.02Z" fill="#FFA300"/>
<path d="M325.396 40.2901L165.34 149.017C138.025 163.003 67.16 164.767 18.75 162.447V298.527C43.47 287.662 70.575 278.365 97.354 271.019L65.387 213.529L61.657 206.823L67.512 201.86C78.505 192.54 91.282 186.008 105.312 185.283C117.279 184.665 129.682 188.598 141.322 197.219C150.518 190.882 160.26 186.599 170.719 186.139C181.043 185.683 191.384 189.389 200.959 196.616C214.143 186.078 228.572 183.983 240.882 186.524C255.26 189.494 267.455 196.694 278.206 200.074L289.006 203.468L246.746 281.73C304.794 308.547 351.056 354.39 340.596 443.55L393.104 343.4L285.694 260.955C337.151 242.111 435.966 288.332 431.994 377.609L456.181 273.462L309.59 209.17C361.097 179.214 451.582 185.597 489.71 283.39L476.67 165.103C398.843 167.403 310.717 159.266 269.348 143.419C259.098 149.819 249.088 157.749 237.656 165.155L227.494 149.47C240.849 140.82 254.394 129.154 270.754 121.117C302.1 102.119 331.399 91.0141 380.25 126.039L325.394 40.2891L325.396 40.2901ZM229.902 203.9C222.97 203.746 216.555 206.325 208.064 215.38L201.512 222.37L194.689 215.645C185.956 207.038 178.792 204.489 171.539 204.809C164.289 205.127 156.003 208.874 146.889 216.251L140.673 221.284L134.741 215.917C124.249 206.425 115.071 203.492 106.276 203.947C99.489 204.297 92.546 206.944 85.671 211.557L133.806 298.124C152.126 309.576 189.436 313.917 215.22 300.778L262.047 214.061C252.807 210.349 244.479 206.349 237.104 204.826C234.581 204.306 232.214 203.95 229.902 203.898V203.9ZM124.756 314.664C103.261 329.539 85.984 355.426 79.376 393.354C73.032 429.754 83.064 454.664 100.898 471.561C118.733 488.459 145.368 497.086 172.354 496.735C199.339 496.385 226.26 487.045 244.464 469.855C262.67 452.665 272.971 428.051 267.166 393.288C261.114 357.046 245.276 331.813 225.25 316.681C192.468 334.421 150.684 330.551 124.756 314.665V314.664Z" fill="white"/>
</g>
<defs>
<clipPath id="clip0_34_217">
<rect width="512" height="512" fill="white"/>
</clipPath>
</defs>
</svg>
