<svg width="64" height="64" viewBox="0 0 512 512" fill="none" xmlns="http://www.w3.org/2000/svg">
<g clip-path="url(#clip0_34_205)">
<path d="M437.02 437.02L256 512L74.98 437.02L0 256L74.98 74.98L256 0L437.02 74.98L512 256L437.02 437.02Z" fill="#FFA300"/>
<path d="M327.027 65.8159L229.79 128.23L239.646 133.627L326.156 78.0969L472.891 161.213L388.726 215.236L392.826 217.48V224.328L458.749 182.012L472.585 189.85L392.825 241.045V252.768L457.458 211.281L472.585 219.851L392.825 271.046V282.769L457.458 241.282L472.585 249.852L392.825 301.047V312.77L492.858 248.56L468.03 234.498L492.857 218.561L468.029 204.497L492.856 188.56L469.319 175.227L493.161 159.922L327.026 65.8159H327.027ZM358.094 110.556C337.056 121.112 309.034 122.898 289.304 114.939L250.734 139.696L377.637 209.166L414.219 185.686C399.809 174.31 401.009 157.336 417.161 144.016L358.093 110.556H358.094ZM227.504 147.5L156.816 193.594L292.426 271.66L293.756 270.81C296.256 269.2 299.786 266.92 303.998 264.197C312.418 258.754 323.561 251.537 334.672 244.337C350.674 233.967 358.92 228.617 366.588 223.643L227.504 147.5ZM342.971 148.67C342.972 148.67 342.973 148.67 342.974 148.67C346.172 148.689 349.104 149.375 351.294 150.615C352.568 151.337 353.557 152.227 354.203 153.235C354.849 154.242 355.14 155.348 355.059 156.489C354.978 157.629 354.527 158.782 353.732 159.882C352.937 160.981 351.813 162.006 350.424 162.897C349.036 163.788 347.41 164.528 345.64 165.075C343.87 165.622 341.99 165.966 340.107 166.085C338.225 166.205 336.377 166.099 334.668 165.773C332.96 165.448 331.425 164.909 330.151 164.187C327.578 162.73 326.225 160.617 326.388 158.314C326.551 156.011 328.217 153.706 331.021 151.907C332.613 150.885 334.515 150.063 336.584 149.502C338.653 148.942 340.837 148.657 342.971 148.67ZM124.548 195.785L19.143 263.44L42.68 276.773L18.838 292.078L43.666 306.141L18.838 322.079L43.666 336.142L18.838 352.08L184.973 446.186L285.277 381.8V370.08L185.844 433.904L39.11 350.787L53.365 341.637L184.973 416.184L285.277 351.8V340.08L185.844 403.904L39.11 320.787L53.365 311.637L184.973 386.184L285.277 321.8V310.08L185.844 373.904L39.11 290.787L52.38 282.267L185.28 357.547L285.277 293.359V288.309L279.797 285.155L186.147 345.265L39.417 262.149L134.177 201.325L124.547 195.782L124.548 195.785ZM145.008 207.565L98.088 237.68C112.498 249.054 111.298 266.028 95.146 279.35L154.214 312.81C175.251 302.253 203.271 300.468 223.001 308.426L268.966 278.922L145.006 207.564L145.008 207.565ZM374.825 239.755C366.781 244.972 359.687 249.577 344.462 259.443C333.35 266.646 322.204 273.863 313.772 279.316C309.555 282.041 306.017 284.326 303.494 285.948C303.404 286.008 303.367 286.028 303.279 286.085V372.009L374.826 323.921L374.825 239.755ZM173.835 257.235C177.034 257.255 179.966 257.941 182.155 259.182C184.728 260.639 186.082 262.752 185.918 265.055C185.755 267.358 184.089 269.662 181.285 271.462C178.482 273.261 174.771 274.408 170.97 274.65C167.169 274.891 163.588 274.209 161.015 272.752C158.442 271.295 157.089 269.182 157.252 266.879C157.415 264.576 159.081 262.271 161.885 260.472C163.477 259.45 165.379 258.628 167.448 258.068C169.517 257.507 171.701 257.223 173.835 257.236V257.235Z" fill="white"/>
</g>
<defs>
<clipPath id="clip0_34_205">
<rect width="512" height="512" fill="white"/>
</clipPath>
</defs>
</svg>
